<svg id="Layer_1" data-name="Layer 1" xmlns="http://www.w3.org/2000/svg" xmlns:xlink="http://www.w3.org/1999/xlink" viewBox="0 0 26.67 26.66"><defs><style>.cls-1{fill:#393939;isolation:isolate;opacity:0.4;}.cls-2{fill-rule:evenodd;fill:url(#linear-gradient);}</style><linearGradient id="linear-gradient" x1="11.4" y1="16" x2="20.6" y2="16" gradientUnits="userSpaceOnUse"><stop offset="0" stop-color="#e1aceb"/><stop offset="1" stop-color="#556eff"/><stop offset="1" stop-color="#556efd"/><stop offset="1" stop-color="#556cf6"/><stop offset="1" stop-color="#5469eb"/><stop offset="1" stop-color="#5366da"/><stop offset="1" stop-color="#5261c4"/><stop offset="1" stop-color="#515ba8"/><stop offset="1" stop-color="#505388"/><stop offset="1" stop-color="#4e4b64"/><stop offset="1" stop-color="#4d4750"/></linearGradient></defs><path class="cls-1" d="M16,29.33a4,4,0,0,1-2.83-1.17l-1-1a2,2,0,0,0-1.42-.58H9.41a4,4,0,0,1-4-4V21.22A2,2,0,0,0,4.8,19.8l-.95-1a4,4,0,0,1,0-5.67l1-1a2,2,0,0,0,.58-1.42V9.41a4,4,0,0,1,4-4h1.37a2,2,0,0,0,1.41-.59l1-.95a4,4,0,0,1,5.68,0l1,1a2,2,0,0,0,1.42.58h1.37a4,4,0,0,1,4,4v1.37a2,2,0,0,0,.58,1.42l1,1A4,4,0,0,1,29.33,16a4,4,0,0,1-1.15,2.83.08.08,0,0,0,0,0l-.95.94a2,2,0,0,0-.58,1.42v1.37a4,4,0,0,1-4,4H21.22a2,2,0,0,0-1.42.58l-1,1A4,4,0,0,1,16,29.33" transform="translate(-2.67 -2.67)"/><path class="cls-2" d="M13.39,13.4a1.13,1.13,0,0,1-.82.34,1.18,1.18,0,0,1-1.17-1.17,1.25,1.25,0,0,1,.34-.82,1.1,1.1,0,0,1,.4-.26,1.16,1.16,0,0,1,1.26.26,1.21,1.21,0,0,1,.25.37,1,1,0,0,1,.1.45A1.12,1.12,0,0,1,13.39,13.4Zm6.86-1.65a1.16,1.16,0,0,0-1.65,0L11.75,18.6a1.18,1.18,0,0,0,0,1.65,1.17,1.17,0,0,0,1.65,0l6.85-6.85A1.16,1.16,0,0,0,20.25,11.75Zm-.38,6.6a1.18,1.18,0,0,0-1.28.26,1.6,1.6,0,0,0-.24.36,1.17,1.17,0,0,0-.08.46,1.16,1.16,0,0,0,.08.45,1.47,1.47,0,0,0,.25.38,1.2,1.2,0,0,0,.84.33,1.22,1.22,0,0,0,.82-.34,1.15,1.15,0,0,0,.33-.82,1.17,1.17,0,0,0-.33-.83A1.12,1.12,0,0,0,19.87,18.35Z" transform="translate(-2.67 -2.67)"/></svg>