<svg id="Layer_1" data-name="Layer 1" xmlns="http://www.w3.org/2000/svg" xmlns:xlink="http://www.w3.org/1999/xlink" viewBox="0 0 656.68 139.15"><defs><style>.cls-1,.cls-4{fill:none;}.cls-2{fill:url(#Degradado_sin_nombre_42);}.cls-3{clip-path:url(#clip-path);}.cls-4{stroke:#fff;stroke-miterlimit:10;stroke-width:2.5px;}.cls-5{fill:#fff;}</style><linearGradient id="Degradado_sin_nombre_42" x1="35.47" y1="573" x2="137.23" y2="471.24" gradientUnits="userSpaceOnUse"><stop offset="0" stop-color="#f08"/><stop offset="0.24" stop-color="#e80ea2"/><stop offset="0.48" stop-color="#a54db9"/><stop offset="0.72" stop-color="#6985ce"/><stop offset="0.91" stop-color="#43a9db"/><stop offset="1" stop-color="#35b6e0"/></linearGradient><clipPath id="clip-path" transform="translate(-32.17 -470.59)"><path class="cls-1" d="M103.75,606.52H69V506.29H33.19V473.48H139.47v32.81H103.75Z"/></clipPath></defs><path class="cls-2" d="M103.75,606.52H69V506.29H33.19V473.48H139.47v32.81H103.75Z" transform="translate(-32.17 -470.59)"/><g class="cls-3"><line class="cls-4" x1="52.95" y1="94.36" x2="73.45" y2="46.38"/><line class="cls-4" x1="35.05" y1="136.25" x2="49.2" y2="103.14"/><path class="cls-4" d="M81.37,573.73a4.71,4.71,0,0,0,1.88.38,4.75,4.75,0,1,0-1.88-.38" transform="translate(-32.17 -470.59)"/><line class="cls-4" x1="71.01" y1="14.95" x2="84.04" y2="1.76"/><line class="cls-4" x1="34.41" y1="51.39" x2="66.14" y2="19.82"/><path class="cls-4" d="M99.32,491.25A3.51,3.51,0,1,0,97.19,488a3.51,3.51,0,0,0,2.13,3.23" transform="translate(-32.17 -470.59)"/><line class="cls-4" x1="18.82" y1="26.43" x2="26.13" y2="36.74"/><line class="cls-4" x1="1.02" y1="1.35" x2="15.32" y2="21.5"/><path class="cls-4" d="M48.05,497.34a3,3,0,0,0,1.19.25,3,3,0,1,0-1.19-.25" transform="translate(-32.17 -470.59)"/><line class="cls-4" x1="94.16" y1="1.8" x2="111.45" y2="23.09"/><line class="cls-4" x1="47.96" y1="138.16" x2="74.98" y2="117.51"/><line class="cls-4" x1="65.85" y1="15.16" x2="31.23" y2="1.16"/><line class="cls-4" x1="55.67" y1="100.02" x2="74.36" y2="107.62"/></g><path class="cls-5" d="M179.83,538.46H157.25v-8.15h55v8.15h-22.7v66.11h-9.7Z" transform="translate(-32.17 -470.59)"/><path class="cls-5" d="M230.07,530.31v44c0,16.64,7.39,23.69,17.3,23.69,11,0,18.07-7.27,18.07-23.69v-44h9.7v43.3c0,22.81-12,32.18-28.1,32.18-15.2,0-26.66-8.71-26.66-31.74V530.31Z" transform="translate(-32.17 -470.59)"/><path class="cls-5" d="M291.77,604.57V530.31h10.47L326,567.88A209.84,209.84,0,0,1,339.37,592l.22-.11c-.88-9.91-1.1-18.95-1.1-30.52V530.31h9v74.26h-9.7l-23.58-37.68a234.26,234.26,0,0,1-13.88-24.79l-.33.11c.55,9.37.77,18.29.77,30.63v31.73Z" transform="translate(-32.17 -470.59)"/><path class="cls-5" d="M364.27,604.57V530.31h10.47l23.8,37.57A211.37,211.37,0,0,1,411.87,592l.22-.11C411.21,582,411,573,411,561.38V530.31h9v74.26h-9.69l-23.58-37.68a234.26,234.26,0,0,1-13.88-24.79l-.34.11c.55,9.37.78,18.29.78,30.63v31.73Z" transform="translate(-32.17 -470.59)"/><path class="cls-5" d="M436.77,531.3a93,93,0,0,1,17.52-1.54c9.58,0,15.75,1.65,20.38,5.4,3.86,2.86,6.17,7.27,6.17,13.11,0,7.16-4.74,13.44-12.56,16.31v.22c7.05,1.76,15.32,7.6,15.32,18.62a20,20,0,0,1-6.28,14.87c-5.18,4.74-13.56,6.94-25.68,6.94a112.11,112.11,0,0,1-14.87-.88Zm9.58,30.41h8.71c10.14,0,16.08-5.29,16.08-12.45,0-8.7-6.61-12.12-16.3-12.12a41.29,41.29,0,0,0-8.49.66Zm0,35.59a51.42,51.42,0,0,0,8,.44c9.91,0,19.06-3.63,19.06-14.43,0-10.14-8.71-14.33-19.17-14.33h-7.94Z" transform="translate(-32.17 -470.59)"/><path class="cls-5" d="M508.49,581.21l-7.71,23.36h-9.92l25.24-74.26h11.57L553,604.57H542.76l-7.93-23.36Zm24.35-7.49-7.27-21.37c-1.65-4.85-2.75-9.26-3.85-13.56h-.22c-1.11,4.41-2.32,8.93-3.75,13.45l-7.27,21.48Z" transform="translate(-32.17 -470.59)"/><path class="cls-5" d="M563.91,604.57V530.31h10.47l23.8,37.57A209.84,209.84,0,0,1,611.51,592l.22-.11c-.88-9.91-1.1-18.95-1.1-30.52V530.31h9v74.26H610l-23.58-37.68a234.26,234.26,0,0,1-13.88-24.79l-.33.11c.55,9.37.77,18.29.77,30.63v31.73Z" transform="translate(-32.17 -470.59)"/><path class="cls-5" d="M636.41,530.31H646v35.81h.33c2-2.87,4-5.51,5.84-7.93l22.69-27.88h11.9l-26.88,31.51,29,42.75H677.51L653.05,568.1l-7,8.16v28.31h-9.59Z" transform="translate(-32.17 -470.59)"/></svg>